<?xml version="1.0" encoding="UTF-8"?>
<svg width="792px" height="393px" viewBox="0 0 792 393" version="1.1" xmlns="http://www.w3.org/2000/svg" xmlns:xlink="http://www.w3.org/1999/xlink">
    <title>Outlined</title>
    <defs>
        <ellipse id="path-1" cx="98.0428338" cy="79.3821131" rx="98.0428338" ry="79.3821131"></ellipse>
    </defs>
    <g id="Outlined" stroke="none" stroke-width="1" fill="none" fill-rule="evenodd">
        <rect fill="#FFFFFF" x="0" y="0" width="792" height="393"></rect>
        <g id="Icon" transform="translate(95.7141, 27.0974)">
            <g id="noun-racket-3131729" transform="translate(195.8987, 195.8976) rotate(-105) translate(-195.8987, -195.8976)translate(35.9493, 35.9467)" fill="#000000" fill-rule="nonzero">
                <path d="M226.89946,0.538019147 C198.806485,3.85192617 172.709319,16.7284158 152.988196,37.0063989 C134.901514,54.7183848 122.615651,77.5031247 117.754978,102.348541 C117.738779,102.346227 117.507371,103.783284 117.507371,103.783284 C117.353485,104.696178 117.194967,105.607947 117.065378,106.521997 C111.601934,140.368989 104.454878,183.294571 85.742026,217.425918 L85.4608652,217.144757 C84.2367219,215.920613 82.2651428,215.877812 80.9888087,217.047567 L1.04983598,290.262756 C0.399583917,290.859781 0.020060404,291.695159 0.000742383235,292.577989 C-0.0181218,293.459663 0.323193444,294.311244 0.948001762,294.936023 L24.967015,318.955036 L24.967015,318.953879 C25.5906682,319.578687 26.4422487,319.92 27.3250488,319.901138 C28.2067235,319.88182 29.0432569,319.502297 29.6391263,318.852044 L102.854316,238.913072 C104.024076,237.636856 103.981275,235.665218 102.757123,234.441015 L102.475962,234.159854 C136.625081,215.44019 179.57732,208.295503 213.430237,202.830578 C214.296865,202.706774 215.159997,202.55636 216.024314,202.410564 L217.562017,202.162957 L217.56086,202.164114 C242.403611,197.290703 265.187166,185.000694 282.903002,166.916086 C303.180097,147.19437 316.056883,121.099574 319.371382,93.007784 C322.130918,65.6668662 313.997983,40.9621455 296.470235,23.4358782 C278.941006,5.90427932 254.217032,-2.24927079 226.898329,0.53473101 L226.89946,0.538019147 Z M300.949938,52.3259619 L278.479172,74.7967278 L245.109065,41.4295821 L267.530069,19.0085781 C282.503372,25.4577824 294.453342,37.3730969 300.947569,52.3253695 L300.949938,52.3259619 Z M306.641458,91.7237786 L306.641458,91.7226216 C306.304765,94.9888401 305.801459,98.2355093 305.132665,101.451077 L283.504001,79.8235983 L303.687496,59.6401036 L303.688652,59.6401036 C306.826616,70.0255352 307.83074,80.9387985 306.64143,91.721733 L306.641458,91.7237786 Z M212.680287,189.988764 L211.965226,190.104466 C199.825686,192.034399 187.40831,191.210603 175.630137,187.695515 L195.802968,167.522684 L217.418895,189.138611 C216.208644,189.389689 215.000673,189.607202 213.792791,189.809686 L212.680287,189.988764 Z M129.91851,107.188481 L130.093221,106.110128 C130.295702,104.902187 130.513236,103.694246 130.764296,102.485209 L152.382297,124.103209 L132.208281,144.277226 L132.208281,144.276068 C128.689698,132.488121 127.867145,120.060377 129.800485,107.911359 L129.91851,107.188481 Z M132.774074,94.4414311 L132.772917,94.4414311 C136.031138,83.5779297 140.934761,73.2781005 147.314654,63.9000517 L179.950181,96.5326167 L157.408622,119.074175 L132.774074,94.4414311 Z M157.409779,129.129637 L190.779887,162.496783 L168.314749,184.961921 L168.312435,184.961921 C153.372603,178.455846 141.450476,166.533719 134.942327,151.594775 L157.409779,129.129637 Z M200.830018,162.496783 L223.371576,139.955225 L256.007103,172.58779 C246.628166,178.967683 236.32804,183.871306 225.462762,187.128342 L200.830018,162.496783 Z M195.803768,157.470533 L162.43366,124.103387 L184.975218,101.561829 L218.345326,134.928975 L195.803768,157.470533 Z M190.002357,96.5358749 L212.518442,74.0197901 L245.885588,107.389898 L223.370688,129.904798 L190.002357,96.5358749 Z M217.544396,68.9950209 L240.084769,46.4546476 L273.454877,79.8217932 L250.913319,102.362167 L217.544396,68.9950209 Z M212.518146,63.9687706 L179.867809,31.3184335 C189.235194,24.924619 199.534135,20.0177381 210.403264,16.7722537 L235.059704,41.4286935 L212.518146,63.9687706 Z M278.47935,84.8486359 L303.136975,109.505076 L303.135818,109.506233 C299.889148,120.372104 294.982268,130.671933 288.587268,140.038726 L255.936931,107.388389 L278.47935,84.8486359 Z M228.181303,13.2684812 C231.17235,12.961853 234.178207,12.8079761 237.185249,12.8068209 C244.995205,12.7871511 252.763692,13.9511378 260.225315,16.2593505 L240.083584,36.4010806 L218.456105,14.7747865 C221.669304,14.107177 224.915973,13.6038707 228.181007,13.2683331 L228.181303,13.2684812 Z M162.030529,46.0521092 C165.797921,42.290641 169.80583,38.7767977 174.029076,35.5345716 L207.491007,68.9935398 L184.974922,91.5084398 L151.518916,58.0524335 C154.757588,53.826817 158.269061,49.8165393 162.031714,46.0494433 L162.030529,46.0521092 Z M121.622664,152.886216 C125.520681,163.255652 131.591636,172.67043 139.429435,180.497862 C147.267233,188.326479 156.68912,194.387066 167.063,198.271162 C143.026807,202.995286 119.750668,210.98711 97.8791186,222.023001 C108.911455,200.168927 116.899725,176.905525 121.622664,152.886216 L121.622664,152.886216 Z M273.855638,157.873071 C270.088246,161.635724 266.077968,165.146309 261.851463,168.384685 L228.395457,134.928678 L250.911542,112.413779 L284.373472,145.872747 L284.372315,145.872747 C281.130385,150.095994 277.61743,154.102717 273.855962,157.870109 L273.855638,157.873071 Z" id="Shape"></path>
            </g>
            <g id="Combined-Shape" transform="translate(124.8445, 154.8762) rotate(30) translate(-124.8445, -154.8762)translate(26.8017, 75.4941)">
                <mask id="mask-2" fill="white">
                    <use xlink:href="#path-1"></use>
                </mask>
                <use id="Mask" fill="#FFFFFF" xlink:href="#path-1"></use>
                <path d="M23.9923551,-29.0277876 L23.9922698,20.1412124 L41.7642698,20.1412124 L41.76447,-29.0277876 L50.0581236,-29.0277876 L50.0572698,20.1412124 L67.8292698,20.1412124 L67.8302385,-29.0277876 L76.1238921,-29.0277876 L76.1232698,20.1412124 L93.8952698,20.1412124 L93.896007,-29.0277876 L102.189661,-29.0277876 L102.18927,20.1412124 L119.96127,20.1412124 L119.961775,-29.0277876 L128.255429,-29.0277876 L128.25527,20.1412124 L146.02727,20.1412124 L146.027544,-29.0277876 L154.321198,-29.0277876 L154.32027,20.1412124 L172.09327,20.1412124 L172.093312,-29.0277876 L180.386966,-29.0277876 L180.38627,20.1412124 L216.227398,20.1417302 L216.227398,28.4353838 L180.38627,28.4352124 L180.38627,47.6882124 L216.227398,47.6885083 L216.227398,55.9821619 L180.38627,55.9812124 L180.38627,75.2352124 L216.227398,75.2352863 L216.227398,83.5289399 L180.38627,83.5282124 L180.38627,102.781212 L216.227398,102.782064 L216.227398,111.075718 L180.38627,111.075212 L180.38627,130.328212 L216.227398,130.328842 L216.227398,138.622496 L180.38627,138.622212 L180.386966,187.792014 L172.093312,187.792014 L172.09327,138.622212 L154.32027,138.622212 L154.321198,187.792014 L146.027544,187.792014 L146.02727,138.622212 L128.25527,138.622212 L128.255429,187.792014 L119.961775,187.792014 L119.96127,138.622212 L102.18927,138.622212 L102.189661,187.792014 L93.896007,187.792014 L93.8952698,138.622212 L76.1232698,138.622212 L76.1238921,187.792014 L67.8302385,187.792014 L67.8292698,138.622212 L50.0572698,138.622212 L50.0581236,187.792014 L41.76447,187.792014 L41.7642698,138.622212 L23.9922698,138.622212 L23.9923551,187.792014 L15.6987015,187.792014 L15.6982698,138.622212 L-20.1417302,138.622496 L-20.1417302,130.328842 L15.6982698,130.328212 L15.6982698,111.075212 L-20.1417302,111.075718 L-20.1417302,102.782064 L15.6982698,102.781212 L15.6982698,83.5282124 L-20.1417302,83.5289399 L-20.1417302,75.2352863 L15.6982698,75.2352124 L15.6982698,55.9812124 L-20.1417302,55.9821619 L-20.1417302,47.6885083 L15.6982698,47.6882124 L15.6982698,28.4352124 L-20.1417302,28.4353838 L-20.1417302,20.1417302 L15.6982698,20.1412124 L15.6987015,-29.0277876 L23.9923551,-29.0277876 Z M67.8292698,111.075212 L50.0572698,111.075212 L50.0572698,130.328212 L67.8292698,130.328212 L67.8292698,111.075212 Z M119.96127,111.075212 L102.18927,111.075212 L102.18927,130.328212 L119.96127,130.328212 L119.96127,111.075212 Z M41.7642698,111.075212 L23.9922698,111.075212 L23.9922698,130.328212 L41.7642698,130.328212 L41.7642698,111.075212 Z M146.02727,111.075212 L128.25527,111.075212 L128.25527,130.328212 L146.02727,130.328212 L146.02727,111.075212 Z M172.09327,111.075212 L154.32027,111.075212 L154.32027,130.328212 L172.09327,130.328212 L172.09327,111.075212 Z M93.8952698,111.075212 L76.1232698,111.075212 L76.1232698,130.328212 L93.8952698,130.328212 L93.8952698,111.075212 Z M172.09327,83.5282124 L154.32027,83.5282124 L154.32027,102.781212 L172.09327,102.781212 L172.09327,83.5282124 Z M146.02727,83.5282124 L128.25527,83.5282124 L128.25527,102.781212 L146.02727,102.781212 L146.02727,83.5282124 Z M41.7642698,83.5282124 L23.9922698,83.5282124 L23.9922698,102.781212 L41.7642698,102.781212 L41.7642698,83.5282124 Z M119.96127,83.5282124 L102.18927,83.5282124 L102.18927,102.781212 L119.96127,102.781212 L119.96127,83.5282124 Z M67.8292698,83.5282124 L50.0572698,83.5282124 L50.0572698,102.781212 L67.8292698,102.781212 L67.8292698,83.5282124 Z M93.8952698,83.5282124 L76.1232698,83.5282124 L76.1232698,102.781212 L93.8952698,102.781212 L93.8952698,83.5282124 Z M172.09327,55.9812124 L154.32027,55.9812124 L154.32027,75.2352124 L172.09327,75.2352124 L172.09327,55.9812124 Z M146.02727,55.9812124 L128.25527,55.9812124 L128.25527,75.2352124 L146.02727,75.2352124 L146.02727,55.9812124 Z M41.7642698,55.9812124 L23.9922698,55.9812124 L23.9922698,75.2352124 L41.7642698,75.2352124 L41.7642698,55.9812124 Z M119.96127,55.9812124 L102.18927,55.9812124 L102.18927,75.2352124 L119.96127,75.2352124 L119.96127,55.9812124 Z M67.8292698,55.9812124 L50.0572698,55.9812124 L50.0572698,75.2352124 L67.8292698,75.2352124 L67.8292698,55.9812124 Z M93.8952698,55.9812124 L76.1232698,55.9812124 L76.1232698,75.2352124 L93.8952698,75.2352124 L93.8952698,55.9812124 Z M172.09327,28.4352124 L154.32027,28.4352124 L154.32027,47.6882124 L172.09327,47.6882124 L172.09327,28.4352124 Z M146.02727,28.4352124 L128.25527,28.4352124 L128.25527,47.6882124 L146.02727,47.6882124 L146.02727,28.4352124 Z M41.7642698,28.4352124 L23.9922698,28.4352124 L23.9922698,47.6882124 L41.7642698,47.6882124 L41.7642698,28.4352124 Z M119.96127,28.4352124 L102.18927,28.4352124 L102.18927,47.6882124 L119.96127,47.6882124 L119.96127,28.4352124 Z M67.8292698,28.4352124 L50.0572698,28.4352124 L50.0572698,47.6882124 L67.8292698,47.6882124 L67.8292698,28.4352124 Z M93.8952698,28.4352124 L76.1232698,28.4352124 L76.1232698,47.6882124 L93.8952698,47.6882124 L93.8952698,28.4352124 Z" fill="#000000" mask="url(#mask-2)"></path>
            </g>
            <path d="M70.9357879,106.002848 L88.7079028,106.002848 L88.7079028,125.255972 L70.9357879,125.255972 Z M70.9357879,161.096404 L88.7079028,161.096404 L88.7079028,180.349528 L70.9357879,180.349528 Z M70.9357879,133.549626 L88.7079028,133.549626 L88.7079028,152.80275 L70.9357879,152.80275 Z M70.9357879,188.643182 L88.7079028,188.643182 L88.7079028,207.896306 L70.9357879,207.896306 Z M97.0015564,106.002848 L114.773671,106.002848 L114.773671,125.255972 L97.0015564,125.255972 Z M97.0015564,161.096404 L114.773671,161.096404 L114.773671,180.349528 L97.0015564,180.349528 Z M97.0015564,133.549626 L114.773671,133.549626 L114.773671,152.80275 L97.0015564,152.80275 Z M97.0015564,188.643182 L114.773671,188.643182 L114.773671,207.896306 L97.0015564,207.896306 Z M123.067325,106.002848 L140.83944,106.002848 L140.83944,125.255972 L123.067325,125.255972 Z M123.067325,161.096404 L140.83944,161.096404 L140.83944,180.349528 L123.067325,180.349528 Z M149.133093,106.002848 L166.905208,106.002848 L166.905208,125.255972 L149.133093,125.255972 Z M149.133093,133.549626 L166.905208,133.549626 L166.905208,152.80275 L149.133093,152.80275 Z M149.133093,188.643182 L166.905208,188.643182 L166.905208,207.896306 L149.133093,207.896306 Z" id="Combined-Shape" fill="#000000" transform="translate(118.9205, 156.9496) rotate(30) translate(-118.9205, -156.9496)"></path>
        </g>
        <g id="&quot;Racquet&quot;" transform="translate(347, 114)" fill="#000000" fill-rule="nonzero">
            <path d="M16.442623,16.3707865 L16.442623,51.9157303 L25.7923497,51.9157303 C28.6939891,51.9157303 31.0045537,51.5154494 32.7240437,50.7148876 C34.4435337,49.9143258 35.7868852,48.7668539 36.7540984,47.2724719 C37.6138434,45.7780899 38.204918,43.9367978 38.5273224,41.7485955 C38.8497268,39.5603933 39.010929,37.0252809 39.010929,34.1432584 C39.010929,31.261236 38.8497268,28.7261236 38.5273224,26.5379213 C38.204918,24.3497191 37.5601093,22.4550562 36.5928962,20.8539326 C34.5510018,17.8651685 30.6821494,16.3707865 24.9863388,16.3707865 L16.442623,16.3707865 Z M0,115 L0,1 L26.4371585,1 C45.7814208,1 55.4535519,12.1544944 55.4535519,34.4634831 C55.4535519,41.1882022 54.4057377,46.8988764 52.3101093,51.5955056 C50.2144809,56.2921348 46.5336976,60.0814607 41.2677596,62.9634831 L59,115 L41.5901639,115 L26.2759563,66.3258427 L16.442623,66.3258427 L16.442623,115 L0,115 Z" id="Shape"></path>
            <path d="M95.6538462,115.040462 L95.6538462,106.72447 L95.3333333,106.72447 C93.1965812,109.709698 91.0331197,112.001927 88.8429487,113.601156 C86.6527778,115.200385 83.5811966,116 79.6282051,116 C77.7051282,116 75.7553419,115.706808 73.7788462,115.120424 C71.8023504,114.53404 69.9059829,113.441233 68.0897436,111.842004 C66.2735043,110.34939 64.8044872,108.19043 63.6826923,105.365125 C62.5608974,102.53982 62,98.8882466 62,94.4104046 C62,89.8259473 62.3739316,85.8012203 63.1217949,82.3362235 C63.8696581,78.8712267 65.258547,75.9659602 67.2884615,73.6204239 C69.2115385,71.3815029 71.8290598,69.7023121 75.1410256,68.5828516 C78.4529915,67.4633911 82.6730769,66.9036609 87.8012821,66.9036609 C88.3354701,66.9036609 88.9230769,66.9036609 89.5641026,66.9036609 C90.2051282,66.9036609 90.792735,66.9569685 91.3269231,67.0635838 C91.8611111,67.1701991 92.5021368,67.2235067 93.25,67.2235067 C93.9978632,67.2235067 94.7991453,67.2768144 95.6538462,67.3834297 L95.6538462,58.9075145 C95.6538462,56.135517 95.0662393,53.8432884 93.8910256,52.0308285 C92.715812,50.2183687 90.5790598,49.3121387 87.4807692,49.3121387 C85.3440171,49.3121387 83.3942308,50.0051381 81.6314103,51.3911368 C79.8685897,52.7771355 78.7200855,54.8028259 78.1858974,57.4682081 L62.3205128,57.4682081 C62.7478632,50.2183687 65.2051282,44.3545279 69.6923077,39.8766859 C71.8290598,37.7443802 74.3931624,36.0651895 77.3846154,34.8391137 C80.3760684,33.6130379 83.741453,33 87.4807692,33 C90.8995726,33 94.1047009,33.5330764 97.0961538,34.5992293 C100.087607,35.6653821 102.705128,37.2646114 104.948718,39.3969171 C107.08547,41.5292229 108.794872,44.194605 110.076923,47.3930636 C111.358974,50.5915222 112,54.3230572 112,58.5876686 L112,115.040462 L95.6538462,115.040462 Z M95.6538462,80.177264 C93.8376068,79.8574181 92.3418803,79.6974952 91.1666667,79.6974952 C87.6410256,79.6974952 84.6228632,80.5237636 82.1121795,82.1763006 C79.6014957,83.8288375 78.3461538,86.8407193 78.3461538,91.2119461 C78.3461538,94.3037893 79.0940171,96.8092486 80.5897436,98.7283237 C82.0854701,100.647399 84.1688034,101.606936 86.8397436,101.606936 C89.6175214,101.606936 91.7809829,100.700706 93.3301282,98.8882466 C94.8792735,97.0757868 95.6538462,94.5170199 95.6538462,91.2119461 L95.6538462,80.177264 Z" id="Shape"></path>
            <path d="M137.476923,88.1793478 C137.476923,92.134058 138.580769,95.0466486 140.788462,96.9171196 C142.996154,98.7875906 145.607692,99.7228261 148.623077,99.7228261 C150.130769,99.7228261 151.315385,99.509058 152.176923,99.0815217 L144.746154,93.1494565 L153.146154,83.2092391 L159.769231,88.5 L159.769231,88.1793478 L159.769231,27.8967391 C159.769231,23.942029 158.665385,21.0294384 156.457692,19.1589674 C154.25,17.2884964 151.638462,16.3532609 148.623077,16.3532609 C145.607692,16.3532609 142.996154,17.2884964 140.788462,19.1589674 C138.580769,21.0294384 137.476923,23.942029 137.476923,27.8967391 L137.476923,88.1793478 Z M121,27.8967391 C121,23.3007246 121.807692,19.2391304 123.423077,15.7119565 C125.038462,12.1847826 127.192308,9.24547101 129.884615,6.89402174 C132.469231,4.64945652 135.403846,2.93931159 138.688462,1.76358696 C141.973077,0.587862319 145.284615,0 148.623077,0 C151.961538,0 155.273077,0.587862319 158.557692,1.76358696 C161.842308,2.93931159 164.830769,4.64945652 167.523077,6.89402174 C170.107692,9.24547101 172.207692,12.1847826 173.823077,15.7119565 C175.438462,19.2391304 176.246154,23.3007246 176.246154,27.8967391 L176.246154,88.1793478 C176.246154,92.6684783 175.438462,96.5697464 173.823077,99.8831522 L184,108.059783 L175.6,118 L165.907692,110.144022 C160.953846,114.098732 155.192308,116.076087 148.623077,116.076087 C145.284615,116.076087 141.973077,115.488225 138.688462,114.3125 C135.403846,113.136775 132.469231,111.373188 129.884615,109.021739 C127.192308,106.777174 125.038462,103.944746 123.423077,100.524457 C121.807692,97.1041667 121,92.9891304 121,88.1793478 L121,27.8967391 Z" id="Shape"></path>
            <path d="M236,34 L236,115.040936 L219.613115,115.040936 L219.613115,107.208577 L219.291803,107.208577 C217.578142,109.766082 215.516393,111.870695 213.106557,113.522417 C210.696721,115.174139 207.617486,116 203.868852,116 C201.83388,116 199.798907,115.653671 197.763934,114.961014 C195.728962,114.268356 193.908197,113.122807 192.301639,111.524366 C190.695082,109.925926 189.409836,107.874594 188.445902,105.37037 C187.481967,102.866147 187,99.8024691 187,96.1793372 L187,34 L203.386885,34 L203.386885,90.1052632 C203.386885,93.0890188 204.08306,95.4333983 205.47541,97.1384016 C206.86776,98.8434048 208.84918,99.6959064 211.419672,99.6959064 C214.525683,99.6959064 216.66776,98.7368421 217.845902,96.8187135 C219.024044,94.9005848 219.613115,92.1299545 219.613115,88.5068226 L219.613115,34 L236,34 Z" id="Path"></path>
            <path d="M294,80.6570328 L261.440789,80.6570328 L261.440789,91.6917148 C261.440789,94.2504817 262.166118,96.2228645 263.616776,97.6088632 C265.067434,98.9948619 267.028509,99.6878613 269.5,99.6878613 C272.616228,99.6878613 274.684759,98.7816313 275.705592,96.9691715 C276.726425,95.1567116 277.344298,93.3442518 277.559211,91.5317919 L294,91.5317919 C294,98.6750161 291.797149,104.432241 287.391447,108.803468 C285.242325,111.042389 282.663377,112.801541 279.654605,114.080925 C276.645833,115.360308 273.260965,116 269.5,116 C264.342105,116 259.963268,114.933847 256.363487,112.801541 C252.763706,110.669236 249.996711,107.843931 248.0625,104.325626 C246.880482,102.19332 246.074561,99.7411689 245.644737,96.9691715 C245.214912,94.1971741 245,91.1586384 245,87.8535645 L245,61.1464355 C245,57.8413616 245.214912,54.8028259 245.644737,52.0308285 C246.074561,49.2588311 246.880482,46.8066795 248.0625,44.6743738 C249.996711,41.1560694 252.763706,38.3307643 256.363487,36.1984586 C259.963268,34.0661529 264.342105,33 269.5,33 C273.260965,33 276.672697,33.6396917 279.735197,34.9190751 C282.797697,36.1984586 285.403509,37.9576108 287.552632,40.1965318 C291.850877,44.9942197 294,51.0179833 294,58.2678227 L294,80.6570328 Z M261.440789,67.8631985 L277.559211,67.8631985 L277.559211,58.5876686 C277.559211,55.4958253 276.833882,53.1769428 275.383224,51.6310212 C273.932566,50.0850996 271.971491,49.3121387 269.5,49.3121387 C267.028509,49.3121387 265.067434,50.0850996 263.616776,51.6310212 C262.166118,53.1769428 261.440789,55.4958253 261.440789,58.5876686 L261.440789,67.8631985 Z" id="Shape"></path>
            <path d="M302.263889,33.6959153 L302.263889,9 L318.791667,9 L318.791667,33.6959153 L329,33.6959153 L329,46.5249622 L318.791667,46.5249622 L318.791667,91.5869894 C318.791667,93.5113464 318.98071,95.0080686 319.358796,96.0771558 C319.736883,97.1462431 320.358025,97.9480585 321.222222,98.4826021 C322.08642,99.0171457 323.13966,99.3378719 324.381944,99.4447806 C325.624228,99.5516894 327.16358,99.6051437 329,99.6051437 L329,115 L322.194444,115 C318.41358,115 315.253858,114.412002 312.715278,113.236006 C310.176698,112.06001 308.151235,110.563288 306.638889,108.74584 C305.126543,106.928391 304.01929,104.870398 303.31713,102.571861 C302.614969,100.273323 302.263889,98.0549672 302.263889,95.9167927 L302.263889,46.5249622 L294,46.5249622 L294,33.6959153 L302.263889,33.6959153 Z" id="Path"></path>
        </g>
    </g>
</svg>